<svg width="1255" height="640" viewBox="0 0 1255 640" fill="none" xmlns="http://www.w3.org/2000/svg">
<g clip-path="url(#clip0_81_29)">
<path d="M470.627 25.0249H360.319L365.683 39.5055H464.994L470.627 25.0249Z" fill="white"/>
<path d="M896.279 25.0249H785.961L791.325 39.5055H890.636L896.279 25.0249Z" fill="white"/>
<path d="M658.943 7.90312H602.19L612.688 0H648.305L658.943 7.90312Z" fill="white"/>
<path d="M880.827 7.90332H373.803L360.319 23.7096H895.659L880.827 7.90332ZM385.509 18.4374C384.081 18.4374 382.932 17.2545 382.932 15.8064C382.932 14.3584 384.091 13.1755 385.509 13.1755C386.928 13.1755 388.086 14.3584 388.086 15.8064C388.086 17.2545 386.928 18.4374 385.509 18.4374ZM393.25 18.4374C391.822 18.4374 390.673 17.2545 390.673 15.8064C390.673 14.3584 391.832 13.1755 393.25 13.1755C394.668 13.1755 395.827 14.3584 395.827 15.8064C395.827 17.2545 394.668 18.4374 393.25 18.4374ZM400.991 18.4374C399.562 18.4374 398.414 17.2545 398.414 15.8064C398.414 14.3584 399.572 13.1755 400.991 13.1755C402.409 13.1755 403.568 14.3584 403.568 15.8064C403.568 17.2545 402.409 18.4374 400.991 18.4374ZM852.431 18.4374C851.003 18.4374 849.854 17.2545 849.854 15.8064C849.854 14.3584 851.013 13.1755 852.431 13.1755C853.849 13.1755 855.008 14.3584 855.008 15.8064C855.008 17.2545 853.849 18.4374 852.431 18.4374ZM860.172 18.4374C858.744 18.4374 857.595 17.2545 857.595 15.8064C857.595 14.3584 858.754 13.1755 860.172 13.1755C861.59 13.1755 862.749 14.3584 862.749 15.8064C862.749 17.2545 861.59 18.4374 860.172 18.4374ZM867.913 18.4374C866.484 18.4374 865.336 17.2545 865.336 15.8064C865.336 14.3584 866.494 13.1755 867.913 13.1755C869.331 13.1755 870.49 14.3584 870.49 15.8064C870.49 17.2545 869.331 18.4374 867.913 18.4374Z" fill="white"/>
<path d="M345.118 25.0249H10.4775V625.52H411.918L470.628 604.451H785.961L844.68 625.52H1246.12V25.0249H910.142" stroke="white" stroke-miterlimit="10"/>
<path d="M470.787 633.902H1.28857V469.527" stroke="white" stroke-width="0.75" stroke-miterlimit="10"/>
<path d="M473.364 640.01C476.216 640.01 478.528 637.65 478.528 634.738C478.528 631.826 476.216 629.466 473.364 629.466C470.512 629.466 468.2 631.826 468.2 634.738C468.2 637.65 470.512 640.01 473.364 640.01Z" fill="white"/>
<path d="M10.3177 317.369L0 327.903V470.129H10.3177V317.369Z" fill="white"/>
<path d="M784.213 633.902H1253.71V469.527" stroke="white" stroke-width="0.75" stroke-miterlimit="10"/>
<path d="M781.635 640.01C784.487 640.01 786.799 637.65 786.799 634.738C786.799 631.826 784.487 629.466 781.635 629.466C778.784 629.466 776.472 631.826 776.472 634.738C776.472 637.65 778.784 640.01 781.635 640.01Z" fill="white"/>
<path d="M1244.68 317.369L1255 327.903V470.129H1244.68V317.369Z" fill="white"/>
<path d="M655.716 613.67L653.02 616.301H625.522L622.826 613.67H481.914L507.703 624.204H770.829L796.628 613.67H655.716Z" fill="white"/>
</g>
<defs>
<clipPath id="clip0_81_29">
<rect width="1255" height="640" fill="white"/>
</clipPath>
</defs>
</svg>
