<svg width="989" height="552" viewBox="0 0 989 552" fill="none" xmlns="http://www.w3.org/2000/svg">
<path d="M970.221 20.2666H20.0269V528.669H970.221V20.2666Z" stroke="#70A6C7" stroke-miterlimit="10"/>
<path d="M42.1865 9.82031H3.46777V39.2921" stroke="#70A6C7" stroke-width="4" stroke-miterlimit="10"/>
<path d="M946.813 10.4355H985.532V39.9074" stroke="#70A6C7" stroke-width="4" stroke-miterlimit="10"/>
<path d="M42.1865 540.949H3.46777V511.478" stroke="#70A6C7" stroke-width="4" stroke-miterlimit="10"/>
<path d="M946.813 540.334H985.532V510.862" stroke="#70A6C7" stroke-width="4" stroke-miterlimit="10"/>
<path d="M74.1775 9.20508H911.667" stroke="#70A6C7" stroke-miterlimit="10"/>
<path d="M492.922 14.7412C498.668 14.7412 503.326 11.4413 503.326 7.3706C503.326 3.29993 498.668 0 492.922 0C487.176 0 482.518 3.29993 482.518 7.3706C482.518 11.4413 487.176 14.7412 492.922 14.7412Z" fill="#70A6C7"/>
<path d="M388.175 9.20544H74.3335L91.6728 0.615234H388.175V9.20544Z" fill="#70A6C7"/>
<path d="M597.981 9.20544H911.823L894.483 0.615234H597.981V9.20544Z" fill="#70A6C7"/>
<path d="M74.1775 542.18H911.667" stroke="#70A6C7" stroke-miterlimit="10"/>
<path d="M492.922 551.385C498.668 551.385 503.326 548.085 503.326 544.014C503.326 539.943 498.668 536.644 492.922 536.644C487.176 536.644 482.518 539.943 482.518 544.014C482.518 548.085 487.176 551.385 492.922 551.385Z" fill="#70A6C7"/>
<path d="M454.065 552C459.81 552 464.468 548.7 464.468 544.629C464.468 540.559 459.81 537.259 454.065 537.259C448.319 537.259 443.661 540.559 443.661 544.629C443.661 548.7 448.319 552 454.065 552Z" fill="#70A6C7"/>
<path d="M535.559 552C541.305 552 545.963 548.7 545.963 544.629C545.963 540.559 541.305 537.259 535.559 537.259C529.814 537.259 525.156 540.559 525.156 544.629C525.156 548.7 529.814 552 535.559 552Z" fill="#70A6C7"/>
<path d="M454.065 15.3564C459.81 15.3564 464.468 12.0565 464.468 7.98584C464.468 3.91517 459.81 0.615234 454.065 0.615234C448.319 0.615234 443.661 3.91517 443.661 7.98584C443.661 12.0565 448.319 15.3564 454.065 15.3564Z" fill="#70A6C7"/>
<path d="M535.559 15.3564C541.305 15.3564 545.963 12.0565 545.963 7.98584C545.963 3.91517 541.305 0.615234 535.559 0.615234C529.814 0.615234 525.156 3.91517 525.156 7.98584C525.156 12.0565 529.814 15.3564 535.559 15.3564Z" fill="#70A6C7"/>
<path d="M388.175 542.18H74.3335L91.6728 550.77H388.175V542.18Z" fill="#70A6C7"/>
<path d="M597.981 542.18H911.823L894.483 550.77H597.981V542.18Z" fill="#70A6C7"/>
</svg>
