<svg width="760" height="846" viewBox="0 0 760 846" fill="none" xmlns="http://www.w3.org/2000/svg">
<path d="M14.9265 33.584H566.368L750.049 226.681V844.582H52.0682L14.9265 804.381V72.0567V33.584Z" stroke="#70A6C7" stroke-miterlimit="10"/>
<path d="M552.275 840.851H266.187V844.582H552.275V840.851Z" fill="#70A6C7"/>
<path d="M266.187 844.583V831.037H541.08" stroke="#70A6C7" stroke-width="0.75" stroke-miterlimit="10"/>
<path d="M479.509 829.034H416.072V833.388H479.509V829.034Z" fill="#70A6C7"/>
<path d="M566.579 20.5234L757.512 223.099V253.822" stroke="#70A6C7" stroke-miterlimit="10"/>
<path d="M748.183 270.54H744.452V392.439H748.183V270.54Z" fill="#70A6C7"/>
<path d="M748.805 399.28H745.074V426.645H748.805V399.28Z" fill="#70A6C7"/>
<path d="M565.957 22.3895C567.331 22.3895 568.445 21.2757 568.445 19.9018C568.445 18.5279 567.331 17.4141 565.957 17.4141C564.584 17.4141 563.47 18.5279 563.47 19.9018C563.47 21.2757 564.584 22.3895 565.957 22.3895Z" fill="#70A6C7"/>
<path d="M757.512 256.235C758.886 256.235 760 255.121 760 253.747C760 252.374 758.886 251.26 757.512 251.26C756.138 251.26 755.025 252.374 755.025 253.747C755.025 255.121 756.138 256.235 757.512 256.235Z" fill="#70A6C7"/>
<path d="M558.494 14.9258H424.157V19.9012H558.494V14.9258Z" fill="#70A6C7"/>
<path d="M52.0682 844.582H14.9265V829.034" stroke="#70A6C7" stroke-width="0.75" stroke-miterlimit="10"/>
<path d="M14.9262 830.9C16.3001 830.9 17.4139 829.786 17.4139 828.413C17.4139 827.039 16.3001 825.925 14.9262 825.925C13.5523 825.925 12.4385 827.039 12.4385 828.413C12.4385 829.786 13.5523 830.9 14.9262 830.9Z" fill="#70A6C7"/>
<path d="M0 456.497L14.9263 449.034V804.779L0 797.316V456.497Z" fill="#70A6C7"/>
<path d="M0 437.84L14.9263 430.376V442.815L0 450.278V437.84Z" fill="#70A6C7"/>
<path d="M0 420.426L14.9263 412.962V425.401L0 432.864V420.426Z" fill="#70A6C7"/>
<path d="M0 403.012L14.9263 395.549V407.987L0 415.451V403.012Z" fill="#70A6C7"/>
<path d="M0 385.597L14.9263 378.134V390.573L0 398.036V385.597Z" fill="#70A6C7"/>
<path d="M575.386 813.486C559.527 813.486 546.677 826.335 546.677 842.195V843.961H749.427V813.486H575.386ZM584.615 838.364C579.117 838.364 574.664 833.911 574.664 828.413C574.664 822.915 579.117 818.462 584.615 818.462C590.113 818.462 594.566 822.915 594.566 828.413C594.566 833.911 590.113 838.364 584.615 838.364ZM610.114 838.986C604.617 838.986 600.164 834.532 600.164 829.035C600.164 823.537 604.617 819.084 610.114 819.084C615.612 819.084 620.065 823.537 620.065 829.035C620.065 834.532 615.612 838.986 610.114 838.986ZM635.614 839.607C630.116 839.607 625.663 835.154 625.663 829.657C625.663 824.159 630.116 819.706 635.614 819.706C641.112 819.706 645.565 824.159 645.565 829.657C645.565 835.154 641.112 839.607 635.614 839.607Z" fill="#70A6C7" stroke="#70A6C7" stroke-miterlimit="10"/>
<path d="M412.962 0H31.0966C20.1009 0 11.1948 8.90606 11.1948 19.9018H432.864C432.864 8.90606 423.958 0 412.962 0ZM32.3405 6.21931H52.2423C52.9264 6.21931 53.4861 6.77905 53.4861 7.46317C53.4861 8.1473 52.9264 8.70704 52.2423 8.70704H32.3405C31.6564 8.70704 31.0966 8.1473 31.0966 7.46317C31.0966 6.77905 31.6564 6.21931 32.3405 6.21931ZM418.56 14.3044H31.7186C31.0344 14.3044 30.4747 13.7447 30.4747 13.0606C30.4747 12.3764 31.0344 11.8167 31.7186 11.8167H418.56C419.244 11.8167 419.804 12.3764 419.804 13.0606C419.804 13.7447 419.244 14.3044 418.56 14.3044Z" fill="#70A6C7"/>
</svg>
