<svg width="538" height="552" viewBox="0 0 538 552" fill="none" xmlns="http://www.w3.org/2000/svg">
<g clip-path="url(#clip0_64_53)">
<path d="M527.785 20.2666H10.8943V528.669H527.785V20.2666Z" stroke="#70A6C7" stroke-miterlimit="10"/>
<path d="M22.9488 9.82031H1.88647V39.2921" stroke="#70A6C7" stroke-width="4" stroke-miterlimit="10"/>
<path d="M515.051 10.4355H536.114V39.9074" stroke="#70A6C7" stroke-width="4" stroke-miterlimit="10"/>
<path d="M22.9488 540.949H1.88647V511.478" stroke="#70A6C7" stroke-width="4" stroke-miterlimit="10"/>
<path d="M515.051 540.334H536.114V510.862" stroke="#70A6C7" stroke-width="4" stroke-miterlimit="10"/>
<path d="M40.3514 9.20508H495.932" stroke="#70A6C7" stroke-miterlimit="10"/>
<path d="M268.142 14.7412C271.267 14.7412 273.801 11.4413 273.801 7.3706C273.801 3.29993 271.267 0 268.142 0C265.016 0 262.482 3.29993 262.482 7.3706C262.482 11.4413 265.016 14.7412 268.142 14.7412Z" fill="#70A6C7"/>
<path d="M211.161 9.20544H40.4363L49.8686 0.615234H211.161V9.20544Z" fill="#70A6C7"/>
<path d="M325.292 9.20544H496.017L486.584 0.615234H325.292V9.20544Z" fill="#70A6C7"/>
<path d="M40.3514 542.18H495.932" stroke="#70A6C7" stroke-miterlimit="10"/>
<path d="M268.142 551.385C271.267 551.385 273.801 548.085 273.801 544.014C273.801 539.943 271.267 536.644 268.142 536.644C265.016 536.644 262.482 539.943 262.482 544.014C262.482 548.085 265.016 551.385 268.142 551.385Z" fill="#70A6C7"/>
<path d="M247.004 552C250.129 552 252.663 548.7 252.663 544.629C252.663 540.559 250.129 537.259 247.004 537.259C243.878 537.259 241.344 540.559 241.344 544.629C241.344 548.7 243.878 552 247.004 552Z" fill="#70A6C7"/>
<path d="M291.336 552C294.461 552 296.995 548.7 296.995 544.629C296.995 540.559 294.461 537.259 291.336 537.259C288.21 537.259 285.676 540.559 285.676 544.629C285.676 548.7 288.21 552 291.336 552Z" fill="#70A6C7"/>
<path d="M247.004 15.3564C250.129 15.3564 252.663 12.0565 252.663 7.98584C252.663 3.91517 250.129 0.615234 247.004 0.615234C243.878 0.615234 241.344 3.91517 241.344 7.98584C241.344 12.0565 243.878 15.3564 247.004 15.3564Z" fill="#70A6C7"/>
<path d="M291.336 15.3564C294.461 15.3564 296.995 12.0565 296.995 7.98584C296.995 3.91517 294.461 0.615234 291.336 0.615234C288.21 0.615234 285.676 3.91517 285.676 7.98584C285.676 12.0565 288.21 15.3564 291.336 15.3564Z" fill="#70A6C7"/>
<path d="M211.161 542.18H40.4363L49.8686 550.77H211.161V542.18Z" fill="#70A6C7"/>
<path d="M325.292 542.18H496.017L486.584 550.77H325.292V542.18Z" fill="#70A6C7"/>
</g>
<defs>
<clipPath id="clip0_64_53">
<rect width="538" height="552" fill="white"/>
</clipPath>
</defs>
</svg>
