<svg width="183" height="136" viewBox="0 0 183 136" fill="none" xmlns="http://www.w3.org/2000/svg">
<path fill-rule="evenodd" clip-rule="evenodd" d="M134.342 77.4304C129.758 109.968 101.802 135 68 135C30.9969 135 1 105.003 1 68C1 30.9969 30.9969 1 68 1C102.786 1 131.381 27.5106 134.682 61.4304H135.687C132.382 26.9574 103.339 0 68 0C30.4446 0 0 30.4446 0 68C0 105.555 30.4446 136 68 136C102.355 136 130.76 110.522 135.351 77.4304H134.342Z" fill="white"/>
<line x1="68" y1="68.5" x2="183" y2="68.5" stroke="white"/>
<path d="M77 60L68 68.5L77 77" stroke="white"/>
</svg>
