<svg width="564" height="552" viewBox="0 0 564 552" fill="none" xmlns="http://www.w3.org/2000/svg">
<g clip-path="url(#clip0_64_53)">
<path d="M553.291 20.2666H11.4209V528.669H553.291V20.2666Z" stroke="#70A6C7" stroke-miterlimit="10"/>
<path d="M24.0579 9.82031H1.97766V39.2921" stroke="#70A6C7" stroke-width="4" stroke-miterlimit="10"/>
<path d="M539.942 10.4355H562.022V39.9074" stroke="#70A6C7" stroke-width="4" stroke-miterlimit="10"/>
<path d="M24.0579 540.949H1.97766V511.478" stroke="#70A6C7" stroke-width="4" stroke-miterlimit="10"/>
<path d="M539.942 540.334H562.022V510.862" stroke="#70A6C7" stroke-width="4" stroke-miterlimit="10"/>
<path d="M42.3015 9.20508H519.899" stroke="#70A6C7" stroke-miterlimit="10"/>
<path d="M281.1 14.7412C284.377 14.7412 287.033 11.4413 287.033 7.3706C287.033 3.29993 284.377 0 281.1 0C277.824 0 275.167 3.29993 275.167 7.3706C275.167 11.4413 277.824 14.7412 281.1 14.7412Z" fill="#70A6C7"/>
<path d="M221.366 9.20544H42.3905L52.2786 0.615234H221.366V9.20544Z" fill="#70A6C7"/>
<path d="M341.012 9.20544H519.988L510.1 0.615234H341.012V9.20544Z" fill="#70A6C7"/>
<path d="M42.3015 542.18H519.899" stroke="#70A6C7" stroke-miterlimit="10"/>
<path d="M281.1 551.385C284.377 551.385 287.033 548.085 287.033 544.014C287.033 539.943 284.377 536.644 281.1 536.644C277.824 536.644 275.167 539.943 275.167 544.014C275.167 548.085 277.824 551.385 281.1 551.385Z" fill="#70A6C7"/>
<path d="M258.941 552C262.218 552 264.874 548.7 264.874 544.629C264.874 540.559 262.218 537.259 258.941 537.259C255.664 537.259 253.008 540.559 253.008 544.629C253.008 548.7 255.664 552 258.941 552Z" fill="#70A6C7"/>
<path d="M305.415 552C308.692 552 311.348 548.7 311.348 544.629C311.348 540.559 308.692 537.259 305.415 537.259C302.139 537.259 299.482 540.559 299.482 544.629C299.482 548.7 302.139 552 305.415 552Z" fill="#70A6C7"/>
<path d="M258.941 15.3564C262.218 15.3564 264.874 12.0565 264.874 7.98584C264.874 3.91517 262.218 0.615234 258.941 0.615234C255.664 0.615234 253.008 3.91517 253.008 7.98584C253.008 12.0565 255.664 15.3564 258.941 15.3564Z" fill="#70A6C7"/>
<path d="M305.415 15.3564C308.692 15.3564 311.348 12.0565 311.348 7.98584C311.348 3.91517 308.692 0.615234 305.415 0.615234C302.139 0.615234 299.482 3.91517 299.482 7.98584C299.482 12.0565 302.139 15.3564 305.415 15.3564Z" fill="#70A6C7"/>
<path d="M221.366 542.18H42.3905L52.2786 550.77H221.366V542.18Z" fill="#70A6C7"/>
<path d="M341.012 542.18H519.988L510.1 550.77H341.012V542.18Z" fill="#70A6C7"/>
</g>
<defs>
<clipPath id="clip0_64_53">
<rect width="564" height="552" fill="white"/>
</clipPath>
</defs>
</svg>
