<svg width="1255" height="627" viewBox="0 0 1255 627" fill="none" xmlns="http://www.w3.org/2000/svg">
<path d="M470.627 24.5166H360.319L365.683 38.703H464.994L470.627 24.5166Z" fill="#70A6C7"/>
<path d="M896.279 24.5166H785.96L791.324 38.703H890.635L896.279 24.5166Z" fill="#70A6C7"/>
<path d="M658.943 7.74259H602.19L612.688 0H648.305L658.943 7.74259Z" fill="#70A6C7"/>
<path d="M880.827 7.74268H373.803L360.319 23.2279H895.659L880.827 7.74268ZM385.509 18.0628C384.081 18.0628 382.932 16.9039 382.932 15.4853C382.932 14.0666 384.091 12.9077 385.509 12.9077C386.928 12.9077 388.086 14.0666 388.086 15.4853C388.086 16.9039 386.928 18.0628 385.509 18.0628ZM393.25 18.0628C391.822 18.0628 390.673 16.9039 390.673 15.4853C390.673 14.0666 391.832 12.9077 393.25 12.9077C394.668 12.9077 395.827 14.0666 395.827 15.4853C395.827 16.9039 394.668 18.0628 393.25 18.0628ZM400.991 18.0628C399.562 18.0628 398.414 16.9039 398.414 15.4853C398.414 14.0666 399.572 12.9077 400.991 12.9077C402.409 12.9077 403.568 14.0666 403.568 15.4853C403.568 16.9039 402.409 18.0628 400.991 18.0628ZM852.431 18.0628C851.003 18.0628 849.854 16.9039 849.854 15.4853C849.854 14.0666 851.013 12.9077 852.431 12.9077C853.849 12.9077 855.008 14.0666 855.008 15.4853C855.008 16.9039 853.849 18.0628 852.431 18.0628ZM860.172 18.0628C858.744 18.0628 857.595 16.9039 857.595 15.4853C857.595 14.0666 858.754 12.9077 860.172 12.9077C861.59 12.9077 862.749 14.0666 862.749 15.4853C862.749 16.9039 861.59 18.0628 860.172 18.0628ZM867.913 18.0628C866.484 18.0628 865.336 16.9039 865.336 15.4853C865.336 14.0666 866.494 12.9077 867.913 12.9077C869.331 12.9077 870.49 14.0666 870.49 15.4853C870.49 16.9039 869.331 18.0628 867.913 18.0628Z" fill="#70A6C7"/>
<path d="M345.118 24.5166H10.4775V612.814H411.918L470.628 592.173H785.961L844.68 612.814H1246.12V24.5166H910.142" stroke="#70A6C7" stroke-miterlimit="10"/>
<path d="M470.787 621.026H1.28857V459.99" stroke="#70A6C7" stroke-width="0.75" stroke-miterlimit="10"/>
<path d="M473.364 627.01C476.216 627.01 478.528 624.697 478.528 621.845C478.528 618.992 476.216 616.68 473.364 616.68C470.512 616.68 468.2 618.992 468.2 621.845C468.2 624.697 470.512 627.01 473.364 627.01Z" fill="#70A6C7"/>
<path d="M10.3177 310.922L0 321.242V460.579H10.3177V310.922Z" fill="#70A6C7"/>
<path d="M784.213 621.026H1253.71V459.99" stroke="#70A6C7" stroke-width="0.75" stroke-miterlimit="10"/>
<path d="M781.636 627.01C784.488 627.01 786.8 624.697 786.8 621.845C786.8 618.992 784.488 616.68 781.636 616.68C778.784 616.68 776.472 618.992 776.472 621.845C776.472 624.697 778.784 627.01 781.636 627.01Z" fill="#70A6C7"/>
<path d="M1244.68 310.922L1255 321.242V460.579H1244.68V310.922Z" fill="#70A6C7"/>
<path d="M655.716 601.205L653.02 603.782H625.522L622.826 601.205H481.914L507.703 611.525H770.829L796.628 601.205H655.716Z" fill="#70A6C7"/>
</svg>
